Coordinates
version=1
nRows=20
nColumns=23
inDegrees=yes

Units are S.I. units (second, meters, Newtons, ...)
If the header above contains a line with 'inDegrees', this indicates whether rotational values are in degrees (yes) or radians (no).

endheader
time	pelvis_tilt	pelvis_list	pelvis_rotation	pelvis_tx	pelvis_ty	pelvis_tz	hip_flexion_r	hip_adduction_r	hip_rotation_r	knee_angle_r	knee_angle_r_beta	ankle_angle_r	subtalar_angle_r	mtp_angle_r	hip_flexion_l	hip_adduction_l	hip_rotation_l	knee_angle_l	knee_angle_l_beta	ankle_angle_l	subtalar_angle_l	mtp_angle_l
     15.00000000	     -4.73916047	      2.93845694	      4.25284983	      2.25190288	      0.90482677	      1.02398071	     -1.61223949	     -4.57713874	     -6.99341152	     84.03326850	      1.46665722	     -5.65345828	    -17.23765869	      0.00000000	     25.99095034	      7.93943234	     -0.86659435	     29.10502484	      0.50797851	      7.21302126	     -7.30716629	      0.00000000
     15.00666667	     -4.73487174	      3.15626169	      4.63122119	      2.25029349	      0.89836404	      1.02329130	     -0.22528185	     -5.00028232	     -6.93605404	     87.57146632	      1.52841042	     -5.32229899	    -16.84096634	      0.00000000	     26.71628138	      8.31438792	     -0.87102546	     32.46469861	      0.56661588	      8.70250219	     -7.75526877	      0.00000000
     15.01333333	     -4.78149357	      3.38805402	      5.06807626	      2.24848980	      0.89205277	      1.02250788	      1.27786973	     -5.50787037	     -6.94175027	     90.98335485	      1.58795911	     -4.87632679	    -16.21130275	      0.00000000	     27.33757319	      8.79564560	     -0.62002861	     35.56423724	      0.62071304	     10.30952446	     -8.41047103	      0.00000000
     15.02000000	     -4.82709914	      3.59872303	      5.53434362	      2.24652650	      0.88608048	      1.02173925	      2.84670191	     -6.01311241	     -6.94810015	     94.20939131	      1.64426406	     -4.45005408	    -15.55677127	      0.00000000	     27.79888078	      9.26064888	     -0.32230990	     38.40545445	      0.67030163	     12.11082720	     -8.74365633	      0.00000000
     15.02666667	     -4.91322171	      3.76176558	      5.93287670	      2.24443608	      0.88046880	      1.02113554	      4.57640388	     -6.43344071	     -6.81023533	     97.26144434	      1.69753244	     -4.03826802	    -14.94065721	      0.00000000	     28.14573106	      9.57572567	     -0.19593298	     40.98534088	      0.71532914	     14.12084020	     -8.56301626	      0.00000000
     15.03333333	     -5.01415242	      3.93904078	      6.39591232	      2.24216552	      0.87539396	      1.02040769	      6.38790361	     -6.93930631	     -6.72732827	    100.10000807	      1.74707472	     -3.56287145	    -14.12138504	      0.00000000	     28.26044593	      9.99558832	      0.18529234	     43.12550188	      0.75268200	     15.99532745	     -8.62212176	      0.00000000
     15.04000000	     -5.16289555	      4.05481127	      6.76964883	      2.23977185	      0.87088288	      1.01985755	      8.39070219	     -7.33543781	     -6.49093930	    102.71712838	      1.79275209	     -3.10750681	    -13.27912917	      0.00000000	     28.24014565	     10.25254572	      0.42369873	     44.92488944	      0.78408724	     17.83283301	     -8.34751373	      0.00000000
     15.04666667	     -5.30602513	      4.15076645	      7.11153387	      2.23729387	      0.86707157	      1.01937206	     10.47898154	     -7.69805455	     -6.18672206	    105.06155190	      1.83367000	     -2.69045249	    -12.43050052	      0.00000000	     28.00206176	     10.45028083	      0.65485082	     46.34291322	      0.80883642	     19.58287853	     -7.97772292	      0.00000000
     15.05333333	     -5.47976773	      4.14394865	      7.34350449	      2.23476001	      0.86395611	      1.01909118	     12.73116331	     -7.87722782	     -5.76187076	    107.11651765	      1.86953592	     -2.33220191	    -11.59751596	      0.00000000	     27.63480072	     10.41700158	      0.72822150	     47.44647059	      0.82809713	     21.28819088	     -7.21894615	      0.00000000
     15.06000000	     -5.65586775	      4.18388097	      7.53483236	      2.23222759	      0.86162085	      1.01876186	     15.04211070	     -8.13237913	     -5.28894489	    108.86803666	      1.90010569	     -1.97070133	    -10.57816219	      0.00000000	     27.03546206	     10.44024358	      0.85955767	     48.10969442	      0.83967257	     22.67144991	     -6.75074998	      0.00000000
     15.06666667	     -5.59271950	      4.21878425	      7.63497049	      2.22986483	      0.86040743	      1.01858708	     17.09903783	     -8.27716745	     -4.76564495	    110.20062561	      1.92336375	     -1.87048532	     -9.92249313	      0.00000000	     25.95276505	     10.36742054	      0.97203149	     48.36188599	      0.84407414	     23.94378193	     -6.49402122	      0.00000000
     15.07333333	     -5.89073238	      4.18229834	      7.65642438	      2.22748848	      0.85942312	      1.01846068	     19.65683271	     -8.38084566	     -4.17903522	    111.30289893	      1.94260205	     -1.49055470	     -8.65634327	      0.00000000	     25.15940743	     10.15471524	      0.87125138	     48.38929726	      0.84455256	     24.96120911	     -5.57046146	      0.00000000
     15.08000000	     -5.97256502	      4.13468586	      7.61966654	      2.22532123	      0.85948227	      1.01836664	     21.92613104	     -8.36855461	     -3.59759615	    111.96462079	      1.95415128	     -1.33384735	     -7.67991021	      0.00000000	     23.94419099	      9.88283158	      0.79281702	     48.06237516	      0.83884669	     25.83757376	     -4.80197127	      0.00000000
     15.08666667	     -5.94416362	      3.89609811	      7.73260356	      2.22348204	      0.86061331	      1.01815348	     23.91086871	     -8.13208302	     -3.34013987	    112.08813279	      1.95630697	     -1.36904978	     -7.24758716	      0.00000000	     22.41809885	      9.52166696	      1.13352233	     47.36463437	      0.82666882	     26.33499980	     -4.43187001	      0.00000000
     15.09333333	     -6.02485337	      3.71080588	      7.72566571	      2.22177628	      0.86224564	      1.01804854	     25.98822750	     -7.94729479	     -3.02756534	    111.90921912	      1.95318434	     -1.34886233	     -6.64136131	      0.00000000	     20.89064877	      9.14144743	      1.27275995	     46.41356385	      0.81006951	     26.77403089	     -3.93473060	      0.00000000
     15.10000000	     -6.07677281	      3.87258652	      7.40260990	      2.22057034	      0.86438535	      1.01812584	     27.98669892	     -8.08176067	     -2.34251939	    111.54288381	      1.94679058	     -0.87205095	     -5.02014550	      0.00000000	     19.10949841	      8.85970788	      0.64914406	     45.09204522	      0.78700466	     27.07084132	     -2.37320890	      0.00000000
     15.10666667	     -6.12486834	      3.70007704	      7.30454888	      2.21956865	      0.86738793	      1.01805943	     29.75258853	     -7.84620061	     -2.11377665	    110.61194515	      1.93054263	     -0.82546064	     -4.43937487	      0.00000000	     17.24477010	      8.41444354	      0.61257589	     43.55354501	      0.76015276	     27.04875360	     -1.52537888	      0.00000000
     15.11333333	     -6.07233260	      3.50252025	      7.23082009	      2.21892962	      0.87111850	      1.01798115	     31.21672317	     -7.58944521	     -2.04097052	    109.31308520	      1.90787325	     -0.65422063	     -3.96678202	      0.00000000	     15.14062650	      7.95201177	      0.65781211	     41.74979358	      0.72867136	     26.82548585	     -0.60361833	      0.00000000
     15.12000000	     -6.16582114	      3.28110745	      7.13156633	      2.21857211	      0.87524268	      1.01795187	     32.68823673	     -7.28156118	     -2.00772472	    107.68628241	      1.87948019	     -0.52365656	     -3.77198276	      0.00000000	     13.10657973	      7.48200942	      0.68751649	     39.72345660	      0.69330511	     26.25168609	      0.18291032	      0.00000000
     15.12666667	     -6.30242962	      2.99595226	      7.04577471	      2.21851863	      0.87977410	      1.01794022	     34.01848289	     -6.91611116	     -2.10234364	    105.73411960	      1.84540852	     -0.37489521	     -3.77299081	      0.00000000	     11.05049894	      6.96285058	      0.75700544	     37.51827560	      0.65481744	     25.32783136	      0.93434074	      0.00000000
